<svg width="1200" height="260" viewBox="0 0 1200 260" fill="none" xmlns="http://www.w3.org/2000/svg" role="img" aria-labelledby="title desc">
  <title id="title">xbbg banner</title>
  <desc id="desc">xbbg: Intuitive APIs for market data. Rust engine shared core, typed requests clear shapes, clear outputs Arrow-native, quickstart.</desc>
  <defs>
    <linearGradient id="card" x1="0" y1="0" x2="1200" y2="260" gradientUnits="userSpaceOnUse">
      <stop offset="0" stop-color="#173f38"/>
      <stop offset="0.58" stop-color="#16342f"/>
      <stop offset="1" stop-color="#1d1b20"/>
    </linearGradient>
    <linearGradient id="mark" x1="78" y1="50" x2="214" y2="186" gradientUnits="userSpaceOnUse">
      <stop stop-color="#173d44"/>
      <stop offset="1" stop-color="#142935"/>
    </linearGradient>
    <pattern id="watermark" patternUnits="userSpaceOnUse" width="680" height="260">
      <text x="0" y="255" font-family="Inter, Segoe UI, Arial, sans-serif" font-size="260" font-weight="800" fill="#ffffff" opacity="0.032">xbbg</text>
    </pattern>
  </defs>

  <rect x="0" y="0" width="1200" height="260" rx="30" fill="url(#card)"/>
  <rect x="0.5" y="0.5" width="1199" height="259" rx="29.5" stroke="#ffffff" stroke-opacity="0.10"/>
  <rect x="0" y="0" width="1200" height="260" rx="30" fill="url(#watermark)"/>

  <g transform="translate(78 62)">
    <rect width="136" height="136" rx="30" fill="url(#mark)"/>
    <text x="68" y="81" text-anchor="middle" font-family="Inter, Segoe UI, Arial, sans-serif" font-size="35" font-weight="800" fill="#ffffff">xbbg</text>
  </g>

  <g transform="translate(250 75)" font-family="Inter, Segoe UI, Arial, sans-serif">
    <text x="0" y="60" font-size="72" font-weight="850" letter-spacing="-3" fill="#ffffff">xbbg</text>
    <text x="3" y="98" font-size="21" font-weight="500" fill="#d6e2dd" opacity="0.84">Intuitive APIs for market data</text>
  </g>

  <g transform="translate(684 69)" font-family="Inter, Segoe UI, Arial, sans-serif">
    <g transform="translate(0 0)">
      <rect x="0" y="8" width="34" height="34" rx="5" stroke="#e8f0ec" stroke-width="3" opacity="0.9"/>
      <path d="M9 0v12M25 0v12M9 42v12M25 42v12M-8 17h12M-8 33h12M30 17h12M30 33h12" stroke="#e8f0ec" stroke-width="3" stroke-linecap="round" opacity="0.9"/>
      <text x="62" y="18" font-size="16" fill="#b9c5c1">Rust engine</text>
      <text x="62" y="47" font-size="24" font-weight="800" fill="#ffffff">Shared core</text>
    </g>
    <g transform="translate(258 0)">
      <path d="M17 3l17 7v16c0 19-17 27-17 27S0 45 0 26V10l17-7z" stroke="#e8f0ec" stroke-width="3" fill="none" opacity="0.9"/>
      <text x="62" y="18" font-size="16" fill="#b9c5c1">Typed requests</text>
      <text x="62" y="47" font-size="24" font-weight="800" fill="#ffffff">Clear shapes</text>
    </g>
    <g transform="translate(0 88)">
      <rect x="0" y="0" width="42" height="42" rx="4" stroke="#e8f0ec" stroke-width="3" opacity="0.9"/>
      <path d="M0 14h42M14 0v42" stroke="#e8f0ec" stroke-width="3" opacity="0.9"/>
      <text x="62" y="14" font-size="16" fill="#b9c5c1">Clear outputs</text>
      <text x="62" y="43" font-size="24" font-weight="800" fill="#ffffff">Arrow-native</text>
    </g>
    <g transform="translate(258 88)">
      <path d="M4 4l24 24L4 52" stroke="#e8f0ec" stroke-width="5" stroke-linecap="round" stroke-linejoin="round" opacity="0.9"/>
      <text x="62" y="14" font-size="16" fill="#b9c5c1">Get started</text>
      <text x="62" y="43" font-size="24" font-weight="800" fill="#ffffff">Quickstart</text>
    </g>
  </g>
</svg>
